<svg xmlns="http://www.w3.org/2000/svg" width="1100" height="270" viewBox="0 0 1100 270"><defs><marker id="a" viewBox="0 0 10 10" refX="9" refY="5" markerWidth="10" markerHeight="10" markerUnits="userSpaceOnUse" orient="auto"><path d="M0,0 L10,5 L0,10 z" fill="#52514e"/></marker></defs><rect width="1100" height="270" fill="#ffffff"/><rect x="40" y="28" width="14" height="14" rx="3" fill="#2a78d6" stroke="none" stroke-width="0"/><text x="62" y="40" font-family="Noto Sans" font-size="14" font-weight="400" font-style="normal" fill="#52514e" text-anchor="start">pyspark/ without JARs</text><rect x="245.4" y="28" width="14" height="14" rx="3" fill="#eb6834" stroke="none" stroke-width="0"/><text x="267.4" y="40" font-family="Noto Sans" font-size="14" font-weight="400" font-style="normal" fill="#52514e" text-anchor="start">Spark JARs</text><rect x="369.4" y="28" width="14" height="14" rx="3" fill="#1baf7a" stroke="none" stroke-width="0"/><text x="391.4" y="40" font-family="Noto Sans" font-size="14" font-weight="400" font-style="normal" fill="#52514e" text-anchor="start">Required dependencies: pyarrow, pandas, numpy, grpcio and others</text><text x="234" y="120" font-family="DejaVu Sans Mono" font-size="16" font-weight="400" font-style="normal" fill="#1f1f1d" text-anchor="end">pyspark[connect]</text><clipPath id="c0"><rect x="250" y="92" width="760.0" height="44" rx="4"/></clipPath><rect x="250" y="92" width="23.170731707317074" height="44" rx="0" fill="#2a78d6" stroke="none" stroke-width="0" clip-path="url(#c0)"/><text x="261.5853658536585" y="156" font-family="Noto Sans" font-size="13" font-weight="400" font-style="normal" fill="#52514e" text-anchor="middle">25 MB</text><rect x="273.1707317073171" y="92" width="422.63414634146346" height="44" rx="0" fill="#eb6834" stroke="none" stroke-width="0" clip-path="url(#c0)"/><line x1="273.1707317073171" y1="92" x2="273.1707317073171" y2="136" stroke="#ffffff" stroke-width="2"/><text x="484.4878048780488" y="156" font-family="Noto Sans" font-size="13" font-weight="400" font-style="normal" fill="#52514e" text-anchor="middle">456 MB</text><rect x="695.8048780487806" y="92" width="314.1951219512195" height="44" rx="0" fill="#1baf7a" stroke="none" stroke-width="0" clip-path="url(#c0)"/><line x1="695.8048780487806" y1="92" x2="695.8048780487806" y2="136" stroke="#ffffff" stroke-width="2"/><text x="852.9024390243903" y="156" font-family="Noto Sans" font-size="13" font-weight="400" font-style="normal" fill="#52514e" text-anchor="middle">339 MB</text><text x="1024.0" y="120" font-family="Noto Sans" font-size="16" font-weight="700" font-style="normal" fill="#1f1f1d" text-anchor="start">820 MB</text><text x="234" y="210" font-family="DejaVu Sans Mono" font-size="16" font-weight="400" font-style="normal" fill="#1f1f1d" text-anchor="end">pyspark-client</text><clipPath id="c1"><rect x="250" y="182" width="332.7317073170732" height="44" rx="4"/></clipPath><rect x="250" y="182" width="17.609756097560975" height="44" rx="0" fill="#2a78d6" stroke="none" stroke-width="0" clip-path="url(#c1)"/><text x="258.8048780487805" y="246" font-family="Noto Sans" font-size="13" font-weight="400" font-style="normal" fill="#52514e" text-anchor="middle">19 MB</text><rect x="267.609756097561" y="182" width="315.1219512195122" height="44" rx="0" fill="#1baf7a" stroke="none" stroke-width="0" clip-path="url(#c1)"/><line x1="267.609756097561" y1="182" x2="267.609756097561" y2="226" stroke="#ffffff" stroke-width="2"/><text x="425.1707317073171" y="246" font-family="Noto Sans" font-size="13" font-weight="400" font-style="normal" fill="#52514e" text-anchor="middle">340 MB</text><text x="596.7317073170732" y="210" font-family="Noto Sans" font-size="16" font-weight="700" font-style="normal" fill="#1f1f1d" text-anchor="start">359 MB</text></svg>
